<svg xmlns="http://www.w3.org/2000/svg" viewBox="0 0 436.93 135.59"><defs><style>.cls-1{fill:#000;}</style></defs><g id="Camada_2" data-name="Camada 2"><g id="Camada_1-2" data-name="Camada 1"><path class="cls-1" d="M4.48,0H101.1a4.38,4.38,0,0,1,3.24,1.23,4.39,4.39,0,0,1,1.24,3.25v96.31a4.24,4.24,0,0,1-4.48,4.48l-96.62-.15A4.59,4.59,0,0,1,1.23,104,4.34,4.34,0,0,1,0,100.64V4.48A4.42,4.42,0,0,1,1.23,1.23,4.42,4.42,0,0,1,4.48,0Zm74.4,74.4V30.72a4.26,4.26,0,0,0-4.48-4.48H30.87a4.24,4.24,0,0,0-4.47,4.48V74.4a4.24,4.24,0,0,0,4.47,4.48H74.4a4.26,4.26,0,0,0,4.48-4.48Z"/><path class="cls-1" d="M120.25,0h96.63a4.41,4.41,0,0,1,3.24,1.23,4.42,4.42,0,0,1,1.23,3.25v96.16a4.24,4.24,0,0,1-4.47,4.48H187.09a4.24,4.24,0,0,0-4.48,4.47v21.53a4.23,4.23,0,0,1-4.48,4.47H160.69a4.23,4.23,0,0,1-4.47-4.47V109.59a4.24,4.24,0,0,0-4.48-4.47H120.25a4.26,4.26,0,0,1-4.48-4.48V4.48A4.43,4.43,0,0,1,117,1.23,4.38,4.38,0,0,1,120.25,0Zm66.84,78.72h3.08a4.23,4.23,0,0,0,4.48-4.47V30.87a4.23,4.23,0,0,0-4.48-4.47H146.65a4.23,4.23,0,0,0-4.48,4.47V74.25a4.23,4.23,0,0,0,4.48,4.47h5.09"/><path class="cls-1" d="M255.82,3.7l13,71.47a4.5,4.5,0,0,0,1.47,2.7,4.19,4.19,0,0,0,2.85,1H281a4.2,4.2,0,0,0,2.86-1,4.55,4.55,0,0,0,1.47-2.7l13-71.47A4.55,4.55,0,0,1,299.74,1a4.23,4.23,0,0,1,2.85-1H320a4.39,4.39,0,0,1,3.55,1.47,4.28,4.28,0,0,1,.77,3.78L307.84,104v.77l-57.57.46a4.51,4.51,0,0,1-2.94-1,4.39,4.39,0,0,1-1.54-2.7l-16-96.32a4.28,4.28,0,0,1,.77-3.78A4.38,4.38,0,0,1,234.06,0H251.5a4.26,4.26,0,0,1,2.86,1A4.49,4.49,0,0,1,255.82,3.7Z"/><path class="cls-1" d="M335.83,0h96.62a4.42,4.42,0,0,1,3.25,1.23,4.42,4.42,0,0,1,1.23,3.25v96.31a4.23,4.23,0,0,1-4.48,4.48H414.7a4.23,4.23,0,0,1-4.47-4.48V92.31A4.43,4.43,0,0,0,409,89.06a4.38,4.38,0,0,0-3.24-1.23H362.38a4.23,4.23,0,0,0-4.48,4.48v8.33a4.24,4.24,0,0,1-4.48,4.48H335.83a4.26,4.26,0,0,1-4.48-4.48V4.48a4.39,4.39,0,0,1,1.24-3.25A4.38,4.38,0,0,1,335.83,0Zm74.4,56.8V30.72a4.26,4.26,0,0,0-4.48-4.48H362.38a4.24,4.24,0,0,0-4.48,4.48V56.8a4.24,4.24,0,0,0,4.48,4.48h43.37a4.26,4.26,0,0,0,4.48-4.48Z"/><path class="cls-1" d="M206.12,115.62h12.23l3.93,2.66V130l-3.93,2.75H206.12Zm2.84,3.07v11h8.43l2-1.33V120l-2-1.33Z"/><path class="cls-1" d="M248.44,132.79h-2.9V115.64h2.85Z"/><path class="cls-1" d="M271.7,115.62h16.09v3.07H274.54v11H285V124.8h-4.21v-3h7v11H271.7Z"/><path class="cls-1" d="M313.94,132.79h-2.89V115.64h2.84Z"/><path class="cls-1" d="M351.1,115.62v3h-5.87v14.13h-2.89V118.66h-5.89v-3Z"/><path class="cls-1" d="M373.58,115.62h16.16v17.17h-2.89v-3.13h-10.4v3.1h-2.87Zm13.27,10.95v-7.91h-10.4v7.91Z"/><path class="cls-1" d="M413,132.79V115.62h2.84v14.09h7.4v3.08Z"/></g></g></svg>